<mxfile host="app.diagrams.net" modified="2024-01-11T06:53:48.690Z" agent="Mozilla/5.0 (Macintosh; Intel Mac OS X 10_15_7) AppleWebKit/537.36 (KHTML, like Gecko) Chrome/120.0.0.0 Safari/537.36" etag="_sfgM1IhCNTsPLL0FFLU" version="22.1.18" type="github">
  <diagram name="第 1 页" id="AN21BFdGWwmZ1JmVHYtP">
    <mxGraphModel dx="1434" dy="710" grid="1" gridSize="10" guides="1" tooltips="1" connect="1" arrows="1" fold="1" page="1" pageScale="1" pageWidth="827" pageHeight="1169" math="0" shadow="0">
      <root>
        <mxCell id="0" />
        <mxCell id="1" parent="0" />
        <mxCell id="mwzBIIZR3BEl2TofQ8Bx-3" value="Vector DB" style="strokeWidth=2;html=1;shape=mxgraph.flowchart.database;whiteSpace=wrap;" vertex="1" parent="1">
          <mxGeometry x="660" y="190" width="60" height="60" as="geometry" />
        </mxCell>
        <mxCell id="mwzBIIZR3BEl2TofQ8Bx-4" value="Object DB" style="strokeWidth=2;html=1;shape=mxgraph.flowchart.database;whiteSpace=wrap;" vertex="1" parent="1">
          <mxGeometry x="660" y="290" width="60" height="60" as="geometry" />
        </mxCell>
        <mxCell id="mwzBIIZR3BEl2TofQ8Bx-22" style="edgeStyle=none;rounded=0;orthogonalLoop=1;jettySize=auto;html=1;entryX=0;entryY=0.25;entryDx=0;entryDy=0;" edge="1" parent="1" target="mwzBIIZR3BEl2TofQ8Bx-10">
          <mxGeometry relative="1" as="geometry">
            <mxPoint x="250.00162357122946" y="205.3916878544134" as="sourcePoint" />
            <mxPoint x="365.26000000000005" y="200.00000000000003" as="targetPoint" />
          </mxGeometry>
        </mxCell>
        <mxCell id="mwzBIIZR3BEl2TofQ8Bx-6" value="" style="sketch=0;outlineConnect=0;fontColor=#232F3E;gradientColor=none;fillColor=#232F3D;strokeColor=none;dashed=0;verticalLabelPosition=bottom;verticalAlign=top;align=center;html=1;fontSize=12;fontStyle=0;aspect=fixed;pointerEvents=1;shape=mxgraph.aws4.client;" vertex="1" parent="1">
          <mxGeometry x="170" y="185.89" width="80" height="77.95" as="geometry" />
        </mxCell>
        <mxCell id="mwzBIIZR3BEl2TofQ8Bx-17" style="edgeStyle=none;rounded=0;orthogonalLoop=1;jettySize=auto;html=1;exitX=0.5;exitY=1;exitDx=0;exitDy=0;" edge="1" parent="1" source="mwzBIIZR3BEl2TofQ8Bx-10" target="mwzBIIZR3BEl2TofQ8Bx-11">
          <mxGeometry relative="1" as="geometry" />
        </mxCell>
        <mxCell id="mwzBIIZR3BEl2TofQ8Bx-23" style="edgeStyle=none;rounded=0;orthogonalLoop=1;jettySize=auto;html=1;exitX=0;exitY=0.75;exitDx=0;exitDy=0;" edge="1" parent="1" target="mwzBIIZR3BEl2TofQ8Bx-6">
          <mxGeometry relative="1" as="geometry">
            <mxPoint x="370" y="225.82" as="sourcePoint" />
            <mxPoint x="249.70162357122945" y="214.17434104313742" as="targetPoint" />
          </mxGeometry>
        </mxCell>
        <mxCell id="mwzBIIZR3BEl2TofQ8Bx-25" style="edgeStyle=none;rounded=0;orthogonalLoop=1;jettySize=auto;html=1;exitX=1;exitY=0.25;exitDx=0;exitDy=0;" edge="1" parent="1" source="mwzBIIZR3BEl2TofQ8Bx-10" target="mwzBIIZR3BEl2TofQ8Bx-24">
          <mxGeometry relative="1" as="geometry" />
        </mxCell>
        <mxCell id="mwzBIIZR3BEl2TofQ8Bx-26" value="Data management" style="edgeLabel;html=1;align=center;verticalAlign=middle;resizable=0;points=[];" vertex="1" connectable="0" parent="mwzBIIZR3BEl2TofQ8Bx-25">
          <mxGeometry x="-0.0247" relative="1" as="geometry">
            <mxPoint as="offset" />
          </mxGeometry>
        </mxCell>
        <mxCell id="mwzBIIZR3BEl2TofQ8Bx-10" value="RAG API&lt;br&gt;" style="rounded=1;whiteSpace=wrap;html=1;" vertex="1" parent="1">
          <mxGeometry x="370" y="190" width="120" height="60" as="geometry" />
        </mxCell>
        <mxCell id="mwzBIIZR3BEl2TofQ8Bx-11" value="Inference API" style="rounded=1;whiteSpace=wrap;html=1;" vertex="1" parent="1">
          <mxGeometry x="370" y="330" width="120" height="60" as="geometry" />
        </mxCell>
        <mxCell id="mwzBIIZR3BEl2TofQ8Bx-16" style="edgeStyle=none;rounded=0;orthogonalLoop=1;jettySize=auto;html=1;exitX=1;exitY=0.5;exitDx=0;exitDy=0;entryX=0;entryY=0.5;entryDx=0;entryDy=0;entryPerimeter=0;" edge="1" parent="1" source="mwzBIIZR3BEl2TofQ8Bx-10" target="mwzBIIZR3BEl2TofQ8Bx-4">
          <mxGeometry relative="1" as="geometry" />
        </mxCell>
        <mxCell id="mwzBIIZR3BEl2TofQ8Bx-18" style="edgeStyle=none;rounded=0;orthogonalLoop=1;jettySize=auto;html=1;exitX=1;exitY=0.5;exitDx=0;exitDy=0;entryX=0;entryY=0.5;entryDx=0;entryDy=0;entryPerimeter=0;" edge="1" parent="1" source="mwzBIIZR3BEl2TofQ8Bx-10" target="mwzBIIZR3BEl2TofQ8Bx-3">
          <mxGeometry relative="1" as="geometry" />
        </mxCell>
        <mxCell id="mwzBIIZR3BEl2TofQ8Bx-24" value="mysql" style="strokeWidth=2;html=1;shape=mxgraph.flowchart.database;whiteSpace=wrap;" vertex="1" parent="1">
          <mxGeometry x="660" y="90" width="60" height="60" as="geometry" />
        </mxCell>
        <mxCell id="mwzBIIZR3BEl2TofQ8Bx-27" value="refactor by golang and deploy in new cluster" style="text;html=1;align=center;verticalAlign=middle;resizable=0;points=[];autosize=1;strokeColor=none;fillColor=none;" vertex="1" parent="1">
          <mxGeometry x="290" y="130" width="260" height="30" as="geometry" />
        </mxCell>
        <mxCell id="mwzBIIZR3BEl2TofQ8Bx-28" value="ucloud" style="text;html=1;align=center;verticalAlign=middle;resizable=0;points=[];autosize=1;strokeColor=none;fillColor=none;" vertex="1" parent="1">
          <mxGeometry x="730" y="308" width="60" height="30" as="geometry" />
        </mxCell>
        <mxCell id="mwzBIIZR3BEl2TofQ8Bx-29" value="qgrant/milvus" style="text;html=1;align=center;verticalAlign=middle;resizable=0;points=[];autosize=1;strokeColor=none;fillColor=none;" vertex="1" parent="1">
          <mxGeometry x="720" y="205" width="90" height="30" as="geometry" />
        </mxCell>
      </root>
    </mxGraphModel>
  </diagram>
</mxfile>
